inDegrees=yes
name=ik_Xsens_quaternion
DataType=double
version=3
OpenSimVersion=4.4-2022-07-23-0e9fedc
endheader
time	pelvis_tilt	pelvis_list	pelvis_rotation	pelvis_tx	pelvis_ty	pelvis_tz	hip_flexion_r	hip_adduction_r	hip_rotation_r	knee_angle_r	knee_angle_r_beta	ankle_angle_r	subtalar_angle_r	mtp_angle_r	hip_flexion_l	hip_adduction_l	hip_rotation_l	knee_angle_l	knee_angle_l_beta	ankle_angle_l	subtalar_angle_l	mtp_angle_l	lumbar_extension	lumbar_bending	lumbar_rotation	arm_flex_r	arm_add_r	arm_rot_r	elbow_flex_r	pro_sup_r	wrist_flex_r	wrist_dev_r	arm_flex_l	arm_add_l	arm_rot_l	elbow_flex_l	pro_sup_l	wrist_flex_l	wrist_dev_l
0	5.550321477303842e-28	2.620561465408274e-19	-6.053877111674663e-28	-4.999254497767828e-21	0.93	-5.314357251974697e-22	-1.002076536921149e-34	-6.499567779712499e-21	0	7.63033592786903e-15	1.331744849753776e-16	6.596244165711902e-18	-2.075000001726963	-3.396000005145023	89.99919664169705	-0.002374102827488759	-39.99813227552909	0.01224016397642029	0.0002136311623725356	2.59400000263976	1.293390183436476e-23	6.293825195306058e-20	2.914968449483421e-28	1.783296965126035e-18	-4.281145074991366e-28	-4.786930160715062e-20	-1.196323113774807e-18	2.361828318849856e-18	7.634515511632306e-15	7.634516248314083e-15	9.953649773672244e-19	-4.532355859433589e-19	89.66808948051045	0.2605831689167853	-71.94668923291908	0.6008615814753402	22.70399474915602	-9.729651338588023e-19	2.291656713358202e-18
0.01666666666666667	0	0	0	0	0.93	0	0	0	0	0	8.210733189403225e-48	0	-2.075000001726963	-3.396000005145023	90.09397131262818	0.07326208052497274	-39.99813443077746	0.01219397914074688	0.0002128250849255421	2.59400000263976	0	0	0	0	0	0	0	0	0	7.84067264101324e-47	0	0	89.6276334800333	0.2797078024438479	-71.95151084939889	0.5465944586202288	22.77624348786294	0	0
0.03333333333333333	-5.897512472880686e-24	1.347686136981256e-16	5.743223960807845e-25	-6.963352402886693e-19	0.93	-1.067078612059554e-18	0	6.876187148911292e-16	0	6.517714109290173e-15	1.137555708318691e-16	3.169200661052365e-14	-2.075000001726965	-3.396000005145023	90.18303981716861	0.1576162352441162	-39.99813727585916	0.01207251306177186	0.0002107051019179406	2.594000002639787	-4.197840864004399e-15	-1.061360205220547e-17	3.277046348528915e-23	3.47078404726961e-14	2.651569391421601e-24	1.64295299876751e-16	2.520238060311498e-15	1.353766108808689e-13	6.51771409072595e-15	6.517714140070478e-15	-6.00825443440289e-15	-3.70497240040205e-15	89.61099350043801	0.3075987330029838	-72.02003186845337	0.5842841568541148	22.84553118926336	2.685441635606524e-14	2.064403978499418e-14
0.05	1.811759798759257e-27	-6.177722777635115e-21	5.21462745204643e-28	1.638270364533885e-23	0.93	-1.318041868552978e-22	5.419035537858699e-36	1.128370439584533e-21	0	2.631101114040061e-15	4.592137739310253e-17	-2.085847816392434e-17	-2.075000001726963	-3.396000005145023	90.28309889522329	0.2115576755870416	-39.99813920032003	0.01203484644569826	0.0002100476954493717	2.59400000263976	-3.292717929812894e-19	6.334966131563479e-22	-2.239798583141873e-27	-5.2686354899814e-18	2.921789727188781e-29	-5.397243049212923e-20	-9.382701668958466e-22	1.12859771219785e-17	2.631100979672068e-15	2.631101139985606e-15	1.476580669023413e-18	2.618283670037756e-19	89.63817138066392	0.292851461847356	-72.07226174410988	0.6166035617567168	22.97612198798323	-5.608337267320704e-18	2.550332333873442e-18
0.06666666666666667	-1.871575367574128e-24	-3.309953935878244e-16	-7.694575699763804e-25	2.349768468371467e-21	0.93	1.424327334662315e-22	0	-4.008890841660051e-21	1.910762380800721e-26	1.472693495172578e-05	2.570335044744493e-07	-1.575348494999952e-14	-2.07500000172696	-3.396000005145078	90.4012257055946	0.2250169561873679	-39.99813882975601	0.01201580390335931	0.0002097153403876064	2.594000002639811	-9.291714733176595e-16	2.246593542413543e-15	-1.599661790214054e-24	2.212394275303256e-19	3.543554598575436e-25	5.890340927052389e-14	-1.105814223387162e-16	4.216918936681647e-14	1.368862606008601e-05	1.472693087909671e-05	4.779738528122821e-16	1.075995420096826e-14	89.65593788711183	0.2762806432594129	-72.11915952710264	0.7181502812906441	23.0978923081278	-3.840619161231067e-16	-3.578624089610589e-15
0.08333333333333333	3.993692592292757e-23	-3.835164554108327e-21	-6.661684821627943e-25	5.938268477642587e-23	0.93	4.985660722964298e-21	-3.369823488069682e-29	1.188687266266887e-16	1.241629606564034e-29	1.339579287293792e-14	2.338006911012083e-16	-1.240901922013169e-14	-2.075000001726963	-3.396000005145023	90.52236211690389	0.2167044048483643	-39.99813800138541	0.01204877765354965	0.0002102908408951581	2.594000002639763	8.742840803644811e-19	-8.873216920504992e-21	-2.984172620962719e-23	3.397207754301584e-14	-1.584585638039881e-23	8.614612239506904e-16	9.944590464974435e-14	1.653358227030176e-14	1.339544850211942e-14	1.339544855433349e-14	-5.776751060746152e-15	2.812754134373586e-13	89.67821175633728	0.2101065540706831	-72.14102750403545	0.7566599096937897	23.2123213058721	3.758028538231805e-14	-1.215449340352616e-13
0.1	0	0	0	0	0.93	0	0	0	0	0	0	0	-2.075000001726963	-3.396000005145023	90.65485414367154	0.183333484712266	-39.99813398659876	0.01213050652861123	0.0002117172788589337	2.59400000263976	0	0	0	0	0	0	0	0	7.954918486564793e-39	0	0	0	89.70236306795223	0.1226333912797765	-72.14168508765276	0.7712387379225895	23.33893757526295	0	0
0.1166666666666667	1.03074467920801e-12	3.132464962995185e-12	-2.780579978952705e-12	-8.000850144713497e-21	0.93	-1.741626126225674e-22	6.506141091342512e-25	5.334321618537192e-22	-3.167828086361126e-32	5.334987816107557e-15	9.264123280207427e-17	1.038640047275053e-16	-2.075000001726963	-3.396000005145023	90.85009588351475	0.1110383368102766	-39.99812890566354	0.0123045592892942	0.0002147550726020155	2.59400000263976	5.763606166152838e-24	5.272841610202805e-20	-1.298203815936905e-12	3.368702348681123e-12	-1.426732566646429e-12	8.743388452454944e-20	-4.650651823099973e-17	-7.469288452859346e-17	5.335824349885171e-15	5.335824456146071e-15	1.303159766265074e-17	4.429636003385654e-19	89.72544788363463	0.02043023901756765	-72.10872507246971	0.7647028352879224	23.46606039302007	-8.157361848646559e-18	-2.824355416296486e-18
0.1333333333333333	0	0	0	0	0.93	0	0	0	0	0	3.865840330373015e-40	0	-2.075000001726963	-3.396000005145023	91.08779236383101	0.00649161808381043	-39.9981250764943	0.01253265238924684	0.0002187360482002914	2.59400000263976	0	0	0	0	0	0	0	0	0	5.261786339342783e-39	0	0	89.75285090981708	-0.06279000853926954	-72.07066205930704	0.7937806866768086	23.59009976388633	0	0
0.15	0	0	0	0	0.93	0	0	0	0	3.358662522448807e-39	1.219047556630697e-42	0	-2.075000001726963	-3.396000005145023	91.28704888751965	-0.104501013793691	-39.99812226410488	0.01276606709406229	0.0002228099033218917	2.59400000263976	0	0	0	0	0	0	0	0	2.254892772290885e-40	6.911725427851273e-40	0	0	89.77073443909649	-0.1473113358438271	-72.03203144385101	0.8106431588817647	23.72750753598637	0	0
0.1666666666666667	2.019313101190952e-28	1.143911267719989e-19	-6.72360135817186e-28	-1.795383760009158e-22	0.93	-1.820653223372839e-23	1.379345718140675e-33	-2.972880001366571e-22	-1.209758529359003e-29	2.665056426597564e-14	4.651400939580431e-16	8.187553891433399e-19	-2.075000001726963	-3.396000005145023	91.42266251025976	-0.1876231973647755	-39.99811784375832	0.01293760758527789	0.0002258038496940922	2.59400000263976	4.309021578351085e-23	2.454140415084007e-20	1.180826055487667e-28	-5.913087157864428e-21	3.906347526335149e-28	-5.319198437053633e-21	4.153433400007123e-19	-4.38126381321189e-20	2.665056430432006e-14	2.665056450386188e-14	-2.658264304679607e-19	1.407965203155012e-19	89.78676329235203	-0.2143639805837713	-72.01031361635913	0.86380065412083	23.86140768022288	-2.369074156224889e-19	2.138544846906644e-19
0.1833333333333333	0	0	0	0	0.93	0	0	0	0	1.819668951810654e-38	0	0	-2.075000001726963	-3.396000005145023	91.52340601722788	-0.230297768702781	-39.99811349586369	0.01305430718676748	0.0002278406419758509	2.59400000263976	0	0	0	0	0	0	0	0	0	0	0	0	89.79625457489145	-0.2940051959660802	-71.9916638691903	0.8835419585321752	23.98254206898929	0	0
0.2	1.40481800848237e-27	-2.311848788372646e-23	-4.224115279145577e-28	4.9906370067379e-27	0.93	9.724987437814762e-26	0	-8.597256430743942e-22	0	1.604628003377355e-14	2.800604192876919e-16	-8.096581846844635e-17	-2.075000001726963	-3.396000005145023	91.6111667679631	-0.2438039572539069	-39.99811043141732	0.013149054090716	0.0002294942874058234	2.59400000263976	-4.650481847614987e-23	-2.926223445548508e-24	4.02163475310279e-28	8.607467087191479e-20	5.658762427421907e-28	-2.576965707564272e-18	1.67476616758897e-19	4.636516709896233e-17	1.604628000694106e-14	1.604628006038804e-14	1.739202004714336e-20	5.846807887039719e-19	89.8028415903712	-0.3899598921835254	-72.00079781472215	0.8759159476338074	24.08781117746365	-1.952358625385998e-19	2.29588408760886e-18
0.2166666666666667	0	0	0	0	0.93	0	0	0	0	0	0	0	-2.075000001726963	-3.396000005145023	91.6897474005452	-0.2397752045757936	-39.99810881595742	0.01323930322081888	0.0002310694318731793	2.59400000263976	0	0	0	0	0	0	0	0	0	0	0	0	89.80869675188978	-0.4764301891073587	-72.03206612594367	0.8733526927694558	24.19539404665941	0	0
0.2333333333333333	0	0	0	0	0.93	0	0	0	0	0	0	0	-2.075000001726963	-3.396000005145023	91.74967456655182	-0.2268514979914546	-39.9981071345025	0.01334095127903021	0.0002328435251672259	2.59400000263976	0	0	0	0	0	0	0	0	0	0	0	0	89.81467521596676	-0.5436175208183068	-72.04154501529842	0.8973775079293402	24.30426412437538	0	0
0.25	-7.050777592530527e-23	-9.542767222859374e-20	-1.122292011689491e-23	-5.456222816251363e-21	0.93	7.492664597555473e-20	1.293136610756882e-34	-1.043179083420793e-24	-1.560415719347188e-17	1.587350676150372e-14	2.770449565982616e-16	-1.481996546193248e-16	-2.075000001726963	-3.396000005145018	91.77987790859888	-0.2100618967989918	-39.99810588524002	0.01341769909832035	0.0002341830273075644	2.59400000263976	-9.354689567257276e-18	1.321150679713819e-18	1.039797594327524e-23	-4.865518417109241e-15	-9.005558649655469e-24	-1.52079739472289e-15	1.018359681841944e-13	-5.419679462134886e-18	1.587350672248338e-14	1.587350675420364e-14	-1.444789917437965e-14	-2.695814211503304e-14	89.82161360074309	-0.6056858531281574	-72.02215008612632	0.923410187860446	24.41304182545435	1.397723378714081e-14	-2.706115110293787e-15
0.2666666666666667	0	0	0	0	0.93	0	0	0	0	1.052357267868557e-38	0	0	-2.075000001726963	-3.396000005145023	91.77822709163567	-0.1955037278217806	-39.99810531636968	0.01347239344745904	0.00023513762378227	2.59400000263976	0	0	0	0	0	0	0	0	0	4.170184058616092e-40	0	0	89.82559355386752	-0.6863563130538948	-72.03854184001364	0.9174336600077642	24.522528443814	0	0
0.2833333333333333	0	0	0	0	0.93	0	0	0	0	1.40880505117367e-39	0	0	-2.075000001726963	-3.396000005145023	91.7622768895631	-0.1657104655416828	-39.99810467090279	0.0134980540913762	0.0002355854865068062	2.59400000263976	0	0	0	0	0	0	0	0	0	0	0	0	89.82481654663749	-0.7715863793061859	-72.09009243397072	0.8972156264870792	24.6349539989499	0	0
0.3	4.412752404189383e-27	-2.682118584733265e-19	-3.362566860362578e-27	-1.977091527563618e-19	0.93	1.191359348076795e-19	-1.650692868111753e-39	-6.637681672662152e-29	3.332061089583693e-28	3.302039833871181e-14	5.765919137343257e-16	-8.953721633051649e-17	-2.075000001726963	-3.396000005145023	91.73916644209669	-0.1469384958927125	-39.99810458987056	0.01349927911047033	0.0002356068671233985	2.594000002639761	1.406027655646624e-16	2.760746833286328e-17	3.662107626013046e-19	2.028555847492258e-16	3.308783106525237e-17	-7.533934840509379e-17	-1.166396287132414e-15	-1.940431052467321e-15	1.31867378232668e-14	1.318664245180944e-14	-2.485953574447227e-17	8.508083636646996e-18	89.82470281656533	-0.8437871357904962	-72.17323587230217	0.8963539055869405	24.74678513492199	1.212992972369589e-18	7.644655467160155e-18
0.3166666666666667	0	0	0	0	0.93	0	0	0	0	0	5.630632350866677e-41	0	-2.075000001726963	-3.396000005145023	91.71337645032074	-0.1372229319691115	-39.99810442161622	0.01347721089909028	0.0002352217041747906	2.59400000263976	0	0	0	0	0	0	0	0	0	0	0	0	89.82722463890256	-0.9040851989186584	-72.23386543824103	0.91692262260257	24.87352533676649	0	0
